<?xml version="1.0" encoding="UTF-8" standalone="no"?>
<!DOCTYPE svg PUBLIC "-//W3C//DTD SVG 1.1//EN" "http://www.w3.org/Graphics/SVG/1.1/DTD/svg11.dtd">
<!-- Created with Vectornator (http://vectornator.io/) -->
<svg height="100%" stroke-miterlimit="10" style="fill-rule:nonzero;clip-rule:evenodd;stroke-linecap:round;stroke-linejoin:round;" version="1.1" viewBox="0 0 330 330" width="100%" xml:space="preserve" xmlns="http://www.w3.org/2000/svg" xmlns:vectornator="http://vectornator.io" xmlns:xlink="http://www.w3.org/1999/xlink">
<defs>
<clipPath id="TextBounds">
<rect height="405.822" width="313.983" x="80.6986" y="-92.5093"/>
</clipPath>
<clipPath id="TextBounds_2">
<rect height="393.347" width="257.804" x="-52.9777" y="-12.147"/>
</clipPath>
</defs>
<clipPath id="ArtboardFrame">
<rect height="330" width="330" x="0" y="0"/>
</clipPath>
<g clip-path="url(#ArtboardFrame)" id="Layer-2" vectornator:layerName="Layer 2">
<path d="M-11.7549-12.9322L525.807-12.9322L525.807 522.31L-11.7549 522.31L-11.7549-12.9322Z" fill="#ffffff" fill-rule="evenodd" opacity="1" stroke="none"/>
</g>
<g id="Layer-1" vectornator:layerName="Layer 1">
<path clip-path="url(#TextBounds)" d="M317.355 290.311C304.204 294.868 290.792 298.351 277.12 300.76C263.449 303.169 249.972 304.374 236.691 304.374C223.54 304.374 211.235 303.006 199.777 300.272C188.318 297.538 177.902 293.566 168.527 288.358C147.042 276.118 130.148 259.028 117.843 237.088C105.538 215.148 99.3861 191.157 99.3861 165.116C99.3861 123.449 112.114 89.8879 137.57 64.4321C163.025 38.9764 196.587 26.2485 238.253 26.2485C250.232 26.2485 262.83 27.3879 276.046 29.6665C289.262 31.9452 303.032 35.3631 317.355 39.9204L317.355 101.444L295.089 101.444L289.035 65.1157L283.761 57.8892C276.079 54.3735 268.592 51.7694 261.3 50.0767C254.009 48.384 246.587 47.5376 239.035 47.5376C208.826 47.5376 184.868 57.8241 167.16 78.397C149.451 98.9699 140.597 126.965 140.597 162.381C140.597 200.012 149.842 229.536 168.331 250.956C186.821 272.375 212.407 283.084 245.089 283.084C250.818 283.084 256.58 282.661 262.374 281.815C268.169 280.969 273.995 279.634 279.855 277.811L286.105 271.561L295.87 227.03L317.355 227.03L317.355 290.311Z" fill="#000000" fill-rule="evenodd" opacity="1" stroke="none"/>
<path clip-path="url(#TextBounds_2)" d="M14.7527 73.5452C25.2927 69.9551 36.0365 67.2254 46.984 65.3562C57.9315 63.487 68.7177 62.5805 79.3426 62.6367C89.8633 62.6923 99.7011 63.8381 108.856 66.0741C118.011 68.31 126.327 71.5311 133.805 75.7374C150.941 85.6199 164.384 99.363 174.135 116.967C183.885 134.571 188.706 153.789 188.596 174.622C188.419 207.955 178.095 234.75 157.623 255.007C137.151 275.263 110.249 285.303 76.9157 285.127C67.3325 285.076 57.2594 284.112 46.6963 282.233C36.1331 280.354 25.1321 277.561 13.6932 273.855L13.9536 224.637L31.7658 224.731L36.4558 253.819L40.6439 259.622C46.7748 262.467 52.7532 264.582 58.5793 265.967C64.4054 267.352 70.3393 268.061 76.3808 268.093C100.547 268.22 119.757 260.093 134.011 243.71C148.264 227.326 155.466 204.968 155.616 176.635C155.775 146.532 148.504 122.873 133.803 105.66C119.102 88.4463 98.6793 79.7704 72.5339 79.6321C67.9506 79.6079 63.3395 79.9221 58.7006 80.5746C54.0616 81.2272 49.3946 82.2702 44.6994 83.7037L39.6731 88.6772L31.6722 124.26L14.485 124.169L14.7527 73.5452Z" fill="#000000" fill-rule="evenodd" opacity="1" stroke="none"/>
<path d="M161.2 90.1374C158.674 91.6721 155.77 96.883 153.122 103.166C148.49 114.158 144.643 128.431 144.977 132.051" fill="none" fill-rule="evenodd" opacity="1" stroke="#ffffff" stroke-linecap="round" stroke-linejoin="round" stroke-width="2.80439"/>
<path d="M149.172 212.557C148.338 204.772 148.502 223.421 166.956 247.049" fill="none" fill-rule="evenodd" opacity="1" stroke="#ffffff" stroke-linecap="round" stroke-linejoin="round" stroke-width="2.80439"/>
</g>
</svg>
